<svg xmlns="http://www.w3.org/2000/svg" version="1.1" xmlns:xlink="http://www.w3.org/1999/xlink" width="512" height="512" x="0" y="0" viewBox="0 0 64 64" style="enable-background:new 0 0 512 512" xml:space="preserve"><g><path d="M14.25 33.07a6.19 6.19 0 1 0-6.18-6.18 6.19 6.19 0 0 0 6.18 6.18Zm0-10.37a4.19 4.19 0 1 1-4.18 4.19 4.2 4.2 0 0 1 4.18-4.19Z" fill="#000000" opacity="1" data-original="#000000"></path><path d="M60 9.15H22.67a1 1 0 0 0-1 1v4.15a1 1 0 0 0 1 1h1.07v20.36l-2-2.19a1 1 0 0 0-.74-.32H7a1.1 1.1 0 0 0-1 .72L3 44.24a1 1 0 0 0 .55 1.19L6 46.51v7.34a1 1 0 0 0 1 1h14a1 1 0 0 0 1-1V43.19l1.59 1.39a1 1 0 0 0 1.34 0l3.48-3.2h4.67a5.1 5.1 0 0 0 1.73 3.81 9.3 9.3 0 0 0-5.87 8.63 1 1 0 0 0 1 1H60a1 1 0 0 0 1-1 9.3 9.3 0 0 0-5.87-8.63 5.11 5.11 0 0 0 1.72-3.81h1.08a1 1 0 0 0 1-1V15.3H60a1 1 0 0 0 1-1v-4.15a1 1 0 0 0-1-1ZM24.23 42.49l-2.57-2.25A1 1 0 0 0 20 41v11.85H8v-5.44L11.51 49a2.76 2.76 0 0 0 3.26-.91A2.68 2.68 0 0 0 14 44.3l-3.53-2.22 1.08-2.16A1 1 0 1 0 9.78 39l-1.49 3a1 1 0 0 0 .36 1.29L12.94 46a.65.65 0 0 1 .19.93.66.66 0 0 1-.81.22L5.2 44l2.53-8.81h12.83l3.9 4.25a1 1 0 0 0 1.42.07l5-4.55a.55.55 0 0 1 .79 0 .52.52 0 0 1 0 .77Zm24 2.73A9.32 9.32 0 0 0 45 47.47a9.12 9.12 0 0 0-3.32-2.24 5.11 5.11 0 0 0 1.73-3.82h3.19a5.14 5.14 0 0 0 1.67 3.81Zm-6.9-3.81a3.15 3.15 0 1 1-3.15-3.15 3.16 3.16 0 0 1 3.19 3.15Zm-3.15 5.15a7.32 7.32 0 0 1 5.51 2.53 9.27 9.27 0 0 0-1.27 3.76H31a7.3 7.3 0 0 1 7.22-6.29Zm20.71 6.29H44.48a7.39 7.39 0 0 1 7.22-6.29 7.3 7.3 0 0 1 7.23 6.29ZM48.56 41.41a3.15 3.15 0 1 1 3.14 3.15 3.15 3.15 0 0 1-3.14-3.15Zm8.37-2h-.5a5.14 5.14 0 0 0-9.45 0H43a5.14 5.14 0 0 0-9.45 0h-2.96l2.35-2.16a2.53 2.53 0 0 0 .17-3.6 2.56 2.56 0 0 0-3.62-.17l-3.75 3.44V15.3h31.19ZM59 13.3H23.67v-2.15H59Z" fill="#000000" opacity="1" data-original="#000000"></path><path d="M38.48 26.76h1.85v1.86a1 1 0 1 0 2 0v-1.86h1.86a1 1 0 0 0 0-2h-1.86v-1.85a1 1 0 1 0-2 0v1.85h-1.85a1 1 0 0 0 0 2Z" fill="#000000" opacity="1" data-original="#000000"></path><path d="M41.33 34.37a8.61 8.61 0 1 0-8.61-8.61 8.63 8.63 0 0 0 8.61 8.61Zm0-15.22a6.61 6.61 0 1 1-6.61 6.61 6.62 6.62 0 0 1 6.61-6.61Z" fill="#000000" opacity="1" data-original="#000000"></path></g></svg>
