<svg xmlns="http://www.w3.org/2000/svg" version="1.1" xmlns:xlink="http://www.w3.org/1999/xlink" width="512" height="512" x="0" y="0" viewBox="0 0 60 60" style="enable-background:new 0 0 512 512" xml:space="preserve" class=""><g><path d="M12.21 49.03h41.06a1.003 1.003 0 0 0 1-1V3.28A3.282 3.282 0 0 0 50.99 0h-36.9a8.37 8.37 0 0 0-8.36 8.36v45.16A6.491 6.491 0 0 0 12.21 60h41.06a1 1 0 0 0 0-2H12.21a4.485 4.485 0 0 1 0-8.97ZM7.73 8.36A6.363 6.363 0 0 1 14.09 2h36.9a1.282 1.282 0 0 1 1.28 1.28v43.75H12.21a6.431 6.431 0 0 0-4.48 1.81Zm22.726 23.93h-.912a2.538 2.538 0 0 1-2.534-2.534v-3.817h-3.817a2.538 2.538 0 0 1-2.534-2.534v-.908a2.54 2.54 0 0 1 2.534-2.538h3.817v-3.813a2.538 2.538 0 0 1 2.534-2.535h.912a2.538 2.538 0 0 1 2.534 2.535v3.813h3.817a2.54 2.54 0 0 1 2.534 2.538v.908a2.538 2.538 0 0 1-2.534 2.534H32.99v3.817a2.538 2.538 0 0 1-2.534 2.535ZM23.193 21.96a.537.537 0 0 0-.534.538v.908a.535.535 0 0 0 .534.534h4.817a1 1 0 0 1 1 1v4.817a.535.535 0 0 0 .534.535h.912a.535.535 0 0 0 .534-.535v-4.817a1 1 0 0 1 1-1h4.817a.535.535 0 0 0 .534-.534v-.908a.537.537 0 0 0-.534-.538H31.99a1 1 0 0 1-1-1v-4.813a.535.535 0 0 0-.534-.535h-.912a.535.535 0 0 0-.534.535v4.813a1 1 0 0 1-1 1ZM30 37.565A14.614 14.614 0 1 1 44.614 22.95 14.63 14.63 0 0 1 30 37.565Zm0-27.228A12.614 12.614 0 1 0 42.614 22.95 12.628 12.628 0 0 0 30 10.337Zm19.02 44.18H12.307a1 1 0 0 1 0-2H49.02a1 1 0 0 1 0 2Zm-.792-9.76a1 1 0 0 1-1-1V30.302a1 1 0 1 1 2 0v13.457a1 1 0 0 1-1 1Z" fill="#000000" opacity="1" data-original="#000000" class=""></path></g></svg>
