<svg xmlns="http://www.w3.org/2000/svg" version="1.1" xmlns:xlink="http://www.w3.org/1999/xlink" width="512" height="512" x="0" y="0" viewBox="0 0 512 512" style="enable-background:new 0 0 512 512" xml:space="preserve" class=""><g><path d="M95.316 158.202h39.633v98.265H95.316zM134.949 64.844H95.316V17.126c0-5.316 4.31-9.626 9.626-9.626h20.38c5.316 0 9.626 4.31 9.626 9.626v47.718zM95.316 343.156h39.633V504.5H95.316z" style="" fill="#685e68" data-original="#685e68"></path><path d="M95.316 343.156h39.633v49.687H95.316z" style="" fill="#554e56" data-original="#554e56"></path><path d="M134.949 41.849H95.316V17.126c0-5.316 4.31-9.626 9.626-9.626h20.38c5.316 0 9.626 4.31 9.626 9.626v24.723zM95.316 181.225h39.633v52.22H95.316z" style="stroke-width:15;stroke-linecap:round;stroke-linejoin:round;stroke-miterlimit:10;" fill="none" stroke="#000000" stroke-width="15" stroke-linecap="round" stroke-linejoin="round" stroke-miterlimit="10" data-original="#000000" class=""></path><path d="M377.051 158.202h39.633v98.265h-39.633zM416.684 64.844h-39.633V17.126c0-5.316 4.31-9.626 9.626-9.626h20.38c5.316 0 9.626 4.31 9.626 9.626v47.718zM377.051 343.156h39.633V504.5h-39.633z" style="" fill="#685e68" data-original="#685e68"></path><path d="M377.051 343.156h39.633v49.687h-39.633z" style="" fill="#554e56" data-original="#554e56"></path><path d="M416.684 41.849h-39.633V17.126c0-5.316 4.31-9.626 9.626-9.626h20.38c5.316 0 9.626 4.31 9.626 9.626v24.723zM377.051 181.225h39.633v52.22h-39.633zM377.051 372.821h39.633V504.5h-39.633z" style="stroke-width:15;stroke-linecap:round;stroke-linejoin:round;stroke-miterlimit:10;" fill="none" stroke="#000000" stroke-width="15" stroke-linecap="round" stroke-linejoin="round" stroke-miterlimit="10" data-original="#000000" class=""></path><path d="M468.05 181.225H43.95c-7.444 0-13.479-6.035-13.479-13.479V55.327c0-7.444 6.035-13.479 13.479-13.479h424.1c7.444 0 13.479 6.035 13.479 13.479v112.419c-.001 7.444-6.035 13.479-13.479 13.479z" style="" fill="#ffe177" data-original="#ffe177" class=""></path><path d="M468.05 41.849h-21.104c7.444 0 13.479 6.035 13.479 13.479v112.419c0 7.444-6.035 13.479-13.479 13.479h21.104c7.444 0 13.479-6.035 13.479-13.479V55.327c-.001-7.444-6.035-13.478-13.479-13.478z" style="" fill="#ffd15b" data-original="#ffd15b"></path><path d="M468.05 372.821H43.95c-7.444 0-13.479-6.035-13.479-13.479V246.924c0-7.444 6.035-13.479 13.479-13.479h424.1c7.444 0 13.479 6.035 13.479 13.479v112.419c-.001 7.443-6.035 13.478-13.479 13.478z" style="" fill="#ffe177" data-original="#ffe177" class=""></path><path d="M468.05 233.445h-21.104c7.444 0 13.479 6.035 13.479 13.479v112.419c0 7.444-6.035 13.479-13.479 13.479h21.104c7.444 0 13.479-6.035 13.479-13.479V246.924c-.001-7.444-6.035-13.479-13.479-13.479z" style="" fill="#ffd15b" data-original="#ffd15b"></path><path d="M313.793 137.585V85.586l35.156 50.909c.652.942 1.35.48 1.35-.665l-.487-50.341M217.551 137.178l9.157-50.732c.229-1.188 1.886-1.299 2.271-.152l14.896 50.489c.361 1.075 1.885 1.068 2.235-.011l14.387-50.469c.373-1.15 2.031-1.057 2.272.128l9.699 50.748M292.605 85.488v52.097M410.949 89.937a25.924 25.924 0 0 0-14.564-4.449c-14.386 0-26.048 11.662-26.048 26.048s11.662 26.048 26.048 26.048c14.386 0 22.486-11.662 22.486-26.048h-15.584M133.74 89.937a25.924 25.924 0 0 0-14.564-4.449c-14.386 0-26.048 11.662-26.048 26.048s11.662 26.048 26.048 26.048c5.843 0 10.649-1.924 14.296-5.172a20.85 20.85 0 0 0 2.114-2.181" style="stroke-width:15;stroke-linecap:round;stroke-linejoin:round;stroke-miterlimit:10;" fill="none" stroke="#000000" stroke-width="15" stroke-linecap="round" stroke-linejoin="round" stroke-miterlimit="10" data-original="#000000" class=""></path><circle cx="175.977" cy="111.537" r="26.048" style="stroke-width:15;stroke-linecap:round;stroke-linejoin:round;stroke-miterlimit:10;" fill="none" stroke="#000000" stroke-width="15" stroke-linecap="round" stroke-linejoin="round" stroke-miterlimit="10" data-original="#000000" class=""></circle><path d="M336.186 329.181v-51.999l35.156 50.909c.652.942 1.35.48 1.35-.665l-.487-50.341M171.417 282.44s-9.348-7.858-20.372-4.537c-10.122 3.049-11.538 14.721-4.215 19.495 0 0 7.186 3.206 15.156 6.146 19.185 7.077 10.921 25.638-4.524 25.638-7.734 0-14.226-3.387-18.154-7.722" style="stroke-width:15;stroke-linecap:round;stroke-linejoin:round;stroke-miterlimit:10;" fill="none" stroke="#000000" stroke-width="15" stroke-linecap="round" stroke-linejoin="round" stroke-miterlimit="10" data-original="#000000" class=""></path><circle cx="217.585" cy="303.133" r="26.048" style="stroke-width:15;stroke-linecap:round;stroke-linejoin:round;stroke-miterlimit:10;" fill="none" stroke="#000000" stroke-width="15" stroke-linecap="round" stroke-linejoin="round" stroke-miterlimit="10" data-original="#000000" class=""></circle><circle cx="289.436" cy="303.133" r="26.048" style="stroke-width:15;stroke-linecap:round;stroke-linejoin:round;stroke-miterlimit:10;" fill="none" stroke="#000000" stroke-width="15" stroke-linecap="round" stroke-linejoin="round" stroke-miterlimit="10" data-original="#000000" class=""></circle><path d="m237.433 486.289 12.035 18.211 26.702-18.211M28.161 489.087l8.041 15.413 17.842-15.413M457.956 489.087l8.041 15.413 17.842-15.413M7.5 504.5h497M95.316 461.828V504.5h39.633V372.821H95.316v60.007" style="stroke-width:15;stroke-linecap:round;stroke-linejoin:round;stroke-miterlimit:10;" fill="none" stroke="#000000" stroke-width="15" stroke-linecap="round" stroke-linejoin="round" stroke-miterlimit="10" data-original="#000000" class=""></path><path d="M481.528 279.812v-32.888c0-7.444-6.035-13.479-13.479-13.479H43.95c-7.444 0-13.479 6.035-13.479 13.479v112.419c0 7.444 6.035 13.479 13.479 13.479h424.1c7.444 0 13.479-6.035 13.479-13.479v-50.53M173.139 41.849H43.95c-7.444 0-13.479 6.035-13.479 13.479v112.419c0 7.444 6.035 13.479 13.479 13.479h424.1c7.444 0 13.479-6.035 13.479-13.479V55.327c0-7.444-6.035-13.479-13.479-13.479H202.139" style="stroke-width:15;stroke-linecap:round;stroke-linejoin:round;stroke-miterlimit:10;" fill="none" stroke="#000000" stroke-width="15" stroke-linecap="round" stroke-linejoin="round" stroke-miterlimit="10" data-original="#000000" class=""></path></g></svg>